<?xml version="1.0" encoding="UTF-8" standalone="no"?><svg xmlns="http://www.w3.org/2000/svg" width="50.667" height="50.667"><path d="M31.093 13.41a31.102 31.102 0 0 1-.935 5.652 24.842 24.842 0 0 1-2.079 5.349 21.175 21.175 0 0 1-1.522 2.44 19.897 19.897 0 0 1-1.851 2.194c-.223.228-.452.448-.685.664.075.017.15.036.225.05l.754.15c.504.097 1.005.21 1.513.284 1.304.231 2.618.403 3.938.533.16-.105.321-.211.478-.322.826-.58 1.633-1.194 2.37-1.884a16.953 16.953 0 0 0 2.02-2.206c.591-.8 1.111-1.656 1.525-2.566 1.158-2.53 1.474-5.44 1.074-8.29a16.065 16.065 0 0 0-6.734-5.015l.002.098c.01.959-.022 1.915-.093 2.869M16.042 33.49c.21-.088.423-.167.63-.26l.62-.282c.817-.394 1.62-.815 2.375-1.308.485-.313.955-.647 1.41-.997l-.978-.218-.386-.086-.383-.101-.766-.204c-.51-.137-1.024-.265-1.526-.432l-1.516-.475-1.496-.54c-.248-.091-.5-.178-.746-.274l-.735-.306c-.489-.207-.984-.402-1.468-.62l-1.441-.683-.303-.144a15.897 15.897 0 0 0 2.962 8.107 29.18 29.18 0 0 0 2.466-.7c.428-.159.863-.298 1.281-.477" fill="#fff"/><path d="M10.016 24.34c.107.068.217.13.33.189l.333.18 1.338.726c.451.232.913.443 1.37.666l.687.33c.232.106.468.2.701.301l1.407.595 1.432.534c.475.188.963.337 1.448.495l.73.237.364.117.37.103 1.477.414c.186.048.372.092.559.136.405-.39.793-.796 1.16-1.22a18.492 18.492 0 0 0 2.862-4.475 23.026 23.026 0 0 0 1.623-5.061c.353-1.743.525-3.524.552-5.303.012-.89-.011-1.781-.074-2.666a29.365 29.365 0 0 0-.086-.967 16.105 16.105 0 0 0-3.289-.338c-8.377 0-15.252 6.42-15.962 14.601l.018.01zM24.759 31.305l-.782-.113c-.26-.035-.518-.09-.778-.135-.21-.04-.421-.077-.632-.115l-.002.001a21.279 21.279 0 0 1-2.384 1.556c-.823.468-1.685.857-2.556 1.213l-.658.253c-.22.083-.445.152-.666.229-.442.158-.897.275-1.345.41a29.75 29.75 0 0 1-2.319.52c.14.18.284.358.432.532l.543-.027c.511-.033 1.022-.07 1.531-.114.255-.017.51-.047.763-.074.255-.025.51-.045.763-.08 4.058-.452 8.067-1.518 11.663-3.393.137-.072.273-.147.409-.221a49.225 49.225 0 0 1-2.418-.235c-.524-.048-1.043-.136-1.564-.207M32.604 31.906l-.12-.002c-.096.076-.19.154-.287.228a24.369 24.369 0 0 1-2.753 1.842c-.475.283-.966.533-1.454.79-.497.238-.99.485-1.498.699-.502.227-1.017.418-1.53.618-.517.186-1.034.374-1.558.535a33.021 33.021 0 0 1-3.18.845c-1.072.227-2.15.43-3.237.555-.425.053-.85.094-1.276.13a15.968 15.968 0 0 0 9.599 3.187c6.64 0 12.337-4.033 14.767-9.78a64.457 64.457 0 0 1-7.473.353M39.055 21.096a14.746 14.746 0 0 1-.782 3.233 14.94 14.94 0 0 1-1.495 2.997 17.734 17.734 0 0 1-2.103 2.604c-.342.358-.702.7-1.07 1.03a63.687 63.687 0 0 0 6.717-.022 15.943 15.943 0 0 0 1.011-5.605c0-3.051-.855-5.903-2.34-8.33.04.267.072.536.094.806.103 1.085.1 2.19-.032 3.287" fill="#fff"/></svg>